<svg xmlns="http://www.w3.org/2000/svg" viewBox="0 0 40 40" role="img" aria-label="JavaScript logo">
  <rect x="8" y="7" width="24" height="26" rx="2" fill="none" stroke="#ffffff" stroke-width="2.5"/>
  <path d="M17 14v11c0 2-1.2 3.2-3.2 3.2-1.5 0-2.7-.6-3.8-1.6" fill="none" stroke="#ffffff" stroke-width="2.5" stroke-linecap="round" stroke-linejoin="round"/>
  <path d="M21.5 24.5c1.2 1.8 2.5 2.7 4.3 2.7 1.8 0 3-1 3-2.2 0-1.5-1.2-2.1-3.3-3l-1.1-.5c-3.1-1.3-5.1-2.8-5.1-6 0-3 2.3-5.3 5.9-5.3 2.6 0 4.5.9 5.8 3.3" fill="none" stroke="#ffffff" stroke-width="2.2" stroke-linecap="round" stroke-linejoin="round"/>
</svg>
