<svg xmlns="http://www.w3.org/2000/svg" viewBox="0 0 40 40" role="img" aria-label="OpenAI logo">
  <path d="M20 10c2.2-1.3 5-.7 6.4 1.3 2.2.1 4.2 1.6 4.8 3.8 2 .9 3.4 3 3.4 5.3 0 2.3-1.4 4.4-3.4 5.3-.6 2.2-2.6 3.7-4.8 3.8-1.4 2-4.2 2.6-6.4 1.3-2.2 1.3-5 .7-6.4-1.3-2.2-.1-4.2-1.6-4.8-3.8-2-.9-3.4-3-3.4-5.3 0-2.3 1.4-4.4 3.4-5.3.6-2.2 2.6-3.7 4.8-3.8 1.4-2 4.2-2.6 6.4-1.3Z" fill="none" stroke="#ffffff" stroke-width="1.8"/>
  <path d="M20 10v7l6.1 3.5M13.9 13.5 20 17m0 7v7m-6.1-3.5L20 24l6.1 3.5" fill="none" stroke="#ffffff" stroke-width="1.8" stroke-linecap="round" stroke-linejoin="round"/>
</svg>
