<svg xmlns="http://www.w3.org/2000/svg" viewBox="0 0 40 40" role="img" aria-label="Redux logo">
  <path d="M23 12c1.4-1.2 3.2-1.7 4.9-1.4 1.7.3 3.2 1.4 4.1 3" fill="none" stroke="#ffffff" stroke-width="2" stroke-linecap="round"/>
  <path d="M25 17c2.8-1 5.3-.5 6.9 1.4 1.6 2 .9 4.7-1.8 7" fill="none" stroke="#ffffff" stroke-width="2" stroke-linecap="round"/>
  <path d="M15 25c-1.4 1.2-3.2 1.7-4.9 1.4-1.7-.3-3.2-1.4-4.1-3" fill="none" stroke="#ffffff" stroke-width="2" stroke-linecap="round"/>
  <path d="M21 23c-2.8 1-5.3.5-6.9-1.4-1.6-2-.9-4.7 1.8-7" fill="none" stroke="#ffffff" stroke-width="2" stroke-linecap="round"/>
  <path d="M19 15c0-3.2 1.4-5.4 4-6.2 2.6-.9 5 .3 6.6 3.2" fill="none" stroke="#ffffff" stroke-width="2" stroke-linecap="round"/>
  <circle cx="24" cy="12" r="2.2" fill="#ffffff"/>
  <circle cx="30" cy="26" r="2.2" fill="#ffffff"/>
  <circle cx="10" cy="28" r="2.2" fill="#ffffff"/>
</svg>
